<svg xmlns="http://www.w3.org/2000/svg" xmlns:xlink="http://www.w3.org/1999/xlink" width="645" zoomAndPan="magnify" viewBox="0 0 483.75 492.749991" height="657" preserveAspectRatio="xMidYMid meet" version="1.0"><defs><clipPath id="f4b18cf545"><path d="M 210 135.28125 L 227 135.28125 L 227 155 L 210 155 Z M 210 135.28125 " clip-rule="nonzero"/></clipPath><clipPath id="7aade9919f"><path d="M 234 135.28125 L 252 135.28125 L 252 155 L 234 155 Z M 234 135.28125 " clip-rule="nonzero"/></clipPath><clipPath id="c541887728"><path d="M 118.453125 239 L 122 239 L 122 257 L 118.453125 257 Z M 118.453125 239 " clip-rule="nonzero"/></clipPath><clipPath id="b6caeafcd6"><path d="M 224 348 L 245 348 L 245 357.167969 L 224 357.167969 Z M 224 348 " clip-rule="nonzero"/></clipPath><clipPath id="c3ecb32964"><path d="M 359 241 L 365.074219 241 L 365.074219 249 L 359 249 Z M 359 241 " clip-rule="nonzero"/></clipPath></defs><path fill="#01b4db" d="M 239.167969 166.25 L 231.015625 171.070312 L 222.761719 166.417969 L 222.667969 156.945312 L 230.820312 152.128906 L 239.070312 156.777344 Z M 239.167969 166.25 " fill-opacity="1" fill-rule="nonzero"/><path fill="#01b4db" d="M 236.15625 164.558594 L 230.980469 167.617188 L 225.738281 164.664062 L 225.671875 158.644531 L 230.855469 155.582031 L 236.097656 158.539062 Z M 236.15625 164.558594 " fill-opacity="1" fill-rule="nonzero"/><g clip-path="url(#f4b18cf545)"><path fill="#01b4db" d="M 226.816406 149.738281 L 218.664062 154.558594 L 210.414062 149.90625 L 210.316406 140.433594 L 218.46875 135.613281 L 226.722656 140.265625 Z M 226.816406 149.738281 " fill-opacity="1" fill-rule="nonzero"/></g><path fill="#01b4db" d="M 223.808594 148.042969 L 218.628906 151.105469 L 213.386719 148.148438 L 213.324219 142.132812 L 218.507812 139.066406 L 223.75 142.023438 Z M 223.808594 148.042969 " fill-opacity="1" fill-rule="nonzero"/><path fill="#01b4db" d="M 282.648438 172.90625 L 274.496094 177.726562 L 266.246094 173.074219 L 266.148438 163.601562 L 274.300781 158.78125 L 282.554688 163.433594 Z M 282.648438 172.90625 " fill-opacity="1" fill-rule="nonzero"/><path fill="#01b4db" d="M 279.644531 171.210938 L 274.460938 174.269531 L 269.21875 171.316406 L 269.160156 165.296875 L 274.335938 162.234375 L 279.582031 165.191406 Z M 279.644531 171.210938 " fill-opacity="1" fill-rule="nonzero"/><path fill="#01b4db" d="M 306.046875 185.785156 L 297.894531 190.605469 L 289.644531 185.953125 L 289.546875 176.480469 L 297.699219 171.660156 L 305.949219 176.3125 Z M 306.046875 185.785156 " fill-opacity="1" fill-rule="nonzero"/><path fill="#01b4db" d="M 303.042969 184.089844 L 297.859375 187.152344 L 292.617188 184.195312 L 292.550781 178.179688 L 297.734375 175.113281 L 302.976562 178.070312 Z M 303.042969 184.089844 " fill-opacity="1" fill-rule="nonzero"/><path fill="#01b4db" d="M 269.195312 151.464844 L 263.542969 154.804688 L 257.832031 151.582031 L 257.761719 145.019531 L 263.414062 141.679688 L 269.128906 144.902344 Z M 269.195312 151.464844 " fill-opacity="1" fill-rule="nonzero"/><path fill="#01b4db" d="M 267.109375 150.289062 L 263.523438 152.410156 L 259.886719 150.359375 L 259.84375 146.195312 L 263.4375 144.070312 L 267.066406 146.121094 Z M 267.109375 150.289062 " fill-opacity="1" fill-rule="nonzero"/><g clip-path="url(#7aade9919f)"><path fill="#01b4db" d="M 251.441406 149.488281 L 243.289062 154.308594 L 235.035156 149.65625 L 234.941406 140.183594 L 243.09375 135.363281 L 251.34375 140.015625 Z M 251.441406 149.488281 " fill-opacity="1" fill-rule="nonzero"/></g><path fill="#01b4db" d="M 248.433594 147.792969 L 243.25 150.855469 L 238.007812 147.894531 L 237.945312 141.878906 L 243.128906 138.820312 L 248.371094 141.773438 Z M 248.433594 147.792969 " fill-opacity="1" fill-rule="nonzero"/><path fill="#01b4db" d="M 187.015625 186.15625 L 176.804688 191.410156 L 167.148438 185.195312 L 167.703125 173.722656 L 177.914062 168.46875 L 187.570312 174.683594 Z M 187.015625 186.15625 " fill-opacity="1" fill-rule="nonzero"/><path fill="#ff56a8" d="M 183.492188 183.886719 L 177.007812 187.230469 L 170.871094 183.28125 L 171.222656 175.992188 L 177.710938 172.652344 L 183.847656 176.597656 Z M 183.492188 183.886719 " fill-opacity="1" fill-rule="nonzero"/><path fill="#01b4db" d="M 203.679688 205.316406 L 193.121094 211.558594 L 182.4375 205.535156 L 182.3125 193.269531 L 192.871094 187.03125 L 203.550781 193.050781 Z M 203.679688 205.316406 " fill-opacity="1" fill-rule="nonzero"/><path fill="#ff56a8" d="M 199.785156 203.121094 L 193.074219 207.085938 L 186.285156 203.253906 L 186.207031 195.46875 L 192.917969 191.5 L 199.703125 195.328125 Z M 199.785156 203.121094 " fill-opacity="1" fill-rule="nonzero"/><path fill="#01b4db" d="M 189.105469 229.507812 L 177.933594 236.105469 L 166.628906 229.734375 L 166.496094 216.757812 L 177.667969 210.160156 L 188.972656 216.53125 Z M 189.105469 229.507812 " fill-opacity="1" fill-rule="nonzero"/><path fill="#ff56a8" d="M 184.984375 227.183594 L 177.882812 231.378906 L 170.703125 227.328125 L 170.617188 219.082031 L 177.714844 214.886719 L 184.898438 218.9375 Z M 184.984375 227.183594 " fill-opacity="1" fill-rule="nonzero"/><path fill="#01b4db" d="M 161.164062 230.367188 L 150.976562 236.382812 L 140.675781 230.574219 L 140.558594 218.746094 L 150.738281 212.726562 L 161.039062 218.539062 Z M 161.164062 230.367188 " fill-opacity="1" fill-rule="nonzero"/><path fill="#ff56a8" d="M 157.40625 228.246094 L 150.9375 232.070312 L 144.386719 228.378906 L 144.3125 220.867188 L 150.78125 217.039062 L 157.328125 220.730469 Z M 157.40625 228.246094 " fill-opacity="1" fill-rule="nonzero"/><path fill="#01b4db" d="M 204.832031 254.085938 L 192.902344 261.132812 L 180.835938 254.324219 L 180.695312 240.472656 L 192.621094 233.425781 L 204.691406 240.234375 Z M 204.832031 254.085938 " fill-opacity="1" fill-rule="nonzero"/><path fill="#ff56a8" d="M 200.429688 251.601562 L 192.851562 256.082031 L 185.183594 251.757812 L 185.097656 242.957031 L 192.671875 238.476562 L 200.34375 242.800781 Z M 200.429688 251.601562 " fill-opacity="1" fill-rule="nonzero"/><path fill="#01b4db" d="M 190.90625 323.582031 L 180.078125 329.984375 L 169.121094 323.804688 L 168.992188 311.222656 L 179.820312 304.824219 L 190.777344 311 Z M 190.90625 323.582031 " fill-opacity="1" fill-rule="nonzero"/><path fill="#01b4db" d="M 186.910156 321.332031 L 180.03125 325.398438 L 173.070312 321.472656 L 172.988281 313.480469 L 179.867188 309.414062 L 186.832031 313.339844 Z M 186.910156 321.332031 " fill-opacity="1" fill-rule="nonzero"/><path fill="#01b4db" d="M 165.511719 324.390625 L 160.242188 327.503906 C 159.167969 326.609375 158.105469 325.699219 157.066406 324.769531 C 153.71875 321.773438 150.554688 318.578125 147.597656 315.210938 C 146.535156 313.996094 145.5 312.761719 144.488281 311.503906 L 154.421875 305.632812 L 165.378906 311.8125 Z M 165.511719 324.390625 " fill-opacity="1" fill-rule="nonzero"/><path fill="#01b4db" d="M 161.511719 322.140625 L 157.066406 324.769531 C 153.71875 321.773438 150.554688 318.578125 147.597656 315.210938 L 147.585938 314.289062 L 154.46875 310.222656 L 161.429688 314.148438 Z M 161.511719 322.140625 " fill-opacity="1" fill-rule="nonzero"/><path fill="#01b4db" d="M 189.589844 278.089844 L 177.890625 285.007812 L 166.046875 278.332031 L 165.90625 264.738281 L 177.613281 257.820312 L 189.453125 264.496094 Z M 189.589844 278.089844 " fill-opacity="1" fill-rule="nonzero"/><path fill="#01b4db" d="M 185.273438 275.65625 L 177.839844 280.050781 L 170.3125 275.808594 L 170.222656 267.171875 L 177.660156 262.777344 L 185.1875 267.019531 Z M 185.273438 275.65625 " fill-opacity="1" fill-rule="nonzero"/><path fill="#01b4db" d="M 204.175781 301.148438 L 192.53125 308.035156 L 180.742188 301.386719 L 180.609375 287.859375 L 192.253906 280.972656 L 204.042969 287.617188 Z M 204.175781 301.148438 " fill-opacity="1" fill-rule="nonzero"/><path fill="#01b4db" d="M 199.878906 298.722656 L 192.480469 303.101562 L 184.992188 298.878906 L 184.902344 290.28125 L 192.304688 285.90625 L 199.792969 290.128906 Z M 199.878906 298.722656 " fill-opacity="1" fill-rule="nonzero"/><path fill="#01b4db" d="M 175.546875 254.378906 L 163.625 261.429688 L 151.554688 254.625 L 151.414062 240.773438 L 163.335938 233.722656 L 175.40625 240.527344 Z M 175.546875 254.378906 " fill-opacity="1" fill-rule="nonzero"/><g clip-path="url(#c541887728)"><path fill="#01b4db" d="M 121.875 254.65625 L 119.050781 256.328125 C 118.65625 252.492188 118.453125 248.601562 118.453125 244.667969 C 118.453125 242.773438 118.5 240.894531 118.59375 239.03125 L 121.734375 240.804688 Z M 121.875 254.65625 " fill-opacity="1" fill-rule="nonzero"/></g><path fill="#ff56a8" d="M 171.148438 251.902344 L 163.570312 256.382812 L 155.902344 252.054688 L 155.8125 243.253906 L 163.390625 238.777344 L 171.058594 243.097656 Z M 171.148438 251.902344 " fill-opacity="1" fill-rule="nonzero"/><path fill="#01b4db" d="M 148.488281 254.65625 L 136.558594 261.707031 L 124.496094 254.902344 L 124.355469 241.050781 L 136.277344 234 L 148.347656 240.804688 Z M 148.488281 254.65625 " fill-opacity="1" fill-rule="nonzero"/><path fill="#ff56a8" d="M 144.089844 252.179688 L 136.507812 256.652344 L 128.84375 252.332031 L 128.75 243.527344 L 136.332031 239.054688 L 143.996094 243.375 Z M 144.089844 252.179688 " fill-opacity="1" fill-rule="nonzero"/><path fill="#01b4db" d="M 162.914062 278.496094 L 150.988281 285.539062 L 138.921875 278.734375 L 138.78125 264.882812 L 150.707031 257.835938 L 162.773438 264.640625 Z M 162.914062 278.496094 " fill-opacity="1" fill-rule="nonzero"/><path fill="#ff56a8" d="M 158.515625 276.011719 L 150.9375 280.492188 L 143.269531 276.167969 L 143.179688 267.367188 L 150.761719 262.886719 L 158.425781 267.210938 Z M 158.515625 276.011719 " fill-opacity="1" fill-rule="nonzero"/><path fill="#01b4db" d="M 150.847656 304.207031 L 142.601562 309.082031 C 141.714844 307.914062 140.851562 306.730469 140.011719 305.527344 C 137.109375 301.359375 134.488281 296.984375 132.191406 292.4375 C 131.53125 291.136719 130.894531 289.816406 130.289062 288.484375 L 138.636719 283.550781 L 150.707031 290.355469 Z M 150.847656 304.207031 " fill-opacity="1" fill-rule="nonzero"/><path fill="#01b4db" d="M 146.449219 301.730469 L 140.011719 305.527344 C 137.109375 301.359375 134.488281 296.984375 132.191406 292.4375 L 138.691406 288.601562 L 146.359375 292.921875 Z M 146.449219 301.730469 " fill-opacity="1" fill-rule="nonzero"/><path fill="#01b4db" d="M 255.199219 185.960938 L 244.640625 192.203125 L 233.957031 186.179688 L 233.832031 173.917969 L 244.390625 167.675781 L 255.070312 173.699219 Z M 255.199219 185.960938 " fill-opacity="1" fill-rule="nonzero"/><path fill="#01b4db" d="M 251.304688 183.765625 L 244.59375 187.734375 L 237.804688 183.90625 L 237.726562 176.113281 L 244.4375 172.148438 L 251.222656 175.972656 Z M 251.304688 183.765625 " fill-opacity="1" fill-rule="nonzero"/><path fill="#01b4db" d="M 214.015625 182.933594 L 207.308594 186.898438 L 200.523438 183.070312 L 200.441406 175.277344 L 207.148438 171.316406 L 213.941406 175.140625 Z M 214.015625 182.933594 " fill-opacity="1" fill-rule="nonzero"/><path fill="#01b4db" d="M 159.214844 187.007812 L 148.917969 193.09375 L 138.5 187.21875 L 138.476562 184.980469 C 139.664062 183.179688 140.90625 181.414062 142.199219 179.691406 C 143.296875 178.222656 144.429688 176.785156 145.601562 175.375 L 145.605469 175.375 C 147.109375 173.558594 148.671875 171.792969 150.289062 170.078125 L 159.09375 175.046875 Z M 159.214844 187.007812 " fill-opacity="1" fill-rule="nonzero"/><path fill="#01b4db" d="M 155.417969 184.863281 L 148.875 188.730469 L 142.253906 185 L 142.199219 179.691406 C 143.296875 178.222656 144.429688 176.785156 145.601562 175.375 L 145.605469 175.375 C 145.605469 175.375 148.71875 173.53125 148.71875 173.53125 L 155.339844 177.265625 Z M 155.417969 184.863281 " fill-opacity="1" fill-rule="nonzero"/><path fill="#01b4db" d="M 133.019531 228.722656 L 126.175781 232.765625 L 120.5 229.570312 C 121.035156 225.96875 121.726562 222.414062 122.566406 218.910156 L 126.011719 216.871094 L 132.9375 220.773438 L 133.015625 228.726562 Z M 133.019531 228.722656 " fill-opacity="1" fill-rule="nonzero"/><path fill="#01b4db" d="M 135.1875 279.800781 L 128.3125 283.863281 C 127.773438 282.511719 127.253906 281.140625 126.769531 279.761719 C 125.042969 274.890625 123.667969 269.871094 122.660156 264.71875 C 122.367188 263.210938 122.101562 261.695312 121.875 260.171875 L 123.140625 259.421875 L 135.046875 266.136719 Z M 135.1875 279.800781 " fill-opacity="1" fill-rule="nonzero"/><path fill="#01b4db" d="M 130.84375 277.355469 L 126.769531 279.761719 C 125.042969 274.890625 123.667969 269.871094 122.660156 264.71875 L 123.191406 264.40625 L 130.757812 268.667969 Z M 130.84375 277.355469 " fill-opacity="1" fill-rule="nonzero"/><path fill="#01b4db" d="M 203.773438 165.824219 L 193.9375 171.636719 L 183.984375 166.027344 L 183.871094 154.605469 L 193.707031 148.789062 L 203.660156 154.398438 Z M 203.773438 165.824219 " fill-opacity="1" fill-rule="nonzero"/><path fill="#01b4db" d="M 200.148438 163.78125 L 193.898438 167.476562 L 187.574219 163.910156 L 187.496094 156.648438 L 193.746094 152.957031 L 200.074219 156.519531 Z M 200.148438 163.78125 " fill-opacity="1" fill-rule="nonzero"/><path fill="#ff56a8" d="M 231.511719 204.453125 L 221.246094 210.515625 L 210.867188 204.667969 L 210.746094 192.75 L 221.007812 186.683594 L 231.386719 192.539062 Z M 231.511719 204.453125 " fill-opacity="1" fill-rule="nonzero"/><path fill="#01b4db" d="M 227.722656 202.320312 L 221.207031 206.175781 L 214.609375 202.457031 L 214.53125 194.882812 L 221.050781 191.027344 L 227.648438 194.75 Z M 227.722656 202.320312 " fill-opacity="1" fill-rule="nonzero"/><path fill="#ff56a8" d="M 245.875 229.472656 L 234.769531 236.039062 L 223.527344 229.699219 L 223.394531 216.792969 L 234.503906 210.230469 L 245.742188 216.566406 Z M 245.875 229.472656 " fill-opacity="1" fill-rule="nonzero"/><path fill="#01b4db" d="M 241.78125 227.160156 L 234.71875 231.332031 L 227.578125 227.304688 L 227.492188 219.105469 L 234.550781 214.933594 L 241.695312 218.960938 Z M 241.78125 227.160156 " fill-opacity="1" fill-rule="nonzero"/><path fill="#ff56a8" d="M 231.53125 253.148438 L 220.421875 259.71875 L 209.183594 253.378906 L 209.050781 240.472656 L 220.160156 233.910156 L 231.402344 240.246094 Z M 231.53125 253.148438 " fill-opacity="1" fill-rule="nonzero"/><path fill="#01b4db" d="M 227.433594 250.839844 L 220.375 255.011719 L 213.230469 250.984375 L 213.152344 242.785156 L 220.207031 238.613281 L 227.351562 242.636719 Z M 227.433594 250.839844 " fill-opacity="1" fill-rule="nonzero"/><path fill="#ff56a8" d="M 218.4375 277.75 L 207.332031 284.316406 L 196.089844 277.980469 L 195.957031 265.078125 L 207.070312 258.511719 L 218.304688 264.847656 Z M 218.4375 277.75 " fill-opacity="1" fill-rule="nonzero"/><path fill="#01b4db" d="M 214.34375 275.441406 L 207.28125 279.617188 L 200.140625 275.585938 L 200.054688 267.386719 L 207.113281 263.21875 L 214.257812 267.242188 Z M 214.34375 275.441406 " fill-opacity="1" fill-rule="nonzero"/><path fill="#ff56a8" d="M 231.53125 301.34375 L 220.421875 307.910156 L 209.183594 301.570312 L 209.050781 288.667969 L 220.160156 282.097656 L 231.402344 288.4375 Z M 231.53125 301.34375 " fill-opacity="1" fill-rule="nonzero"/><path fill="#01b4db" d="M 227.433594 299.03125 L 220.375 303.203125 L 213.230469 299.179688 L 213.152344 290.976562 L 220.207031 286.804688 L 227.351562 290.832031 Z M 227.433594 299.03125 " fill-opacity="1" fill-rule="nonzero"/><path fill="#ff56a8" d="M 258.652344 301.34375 L 247.539062 307.910156 L 236.296875 301.570312 L 236.167969 288.667969 L 247.277344 282.097656 L 258.519531 288.4375 Z M 258.652344 301.34375 " fill-opacity="1" fill-rule="nonzero"/><path fill="#ff56a8" d="M 244.523438 323.292969 L 234.203125 329.394531 L 223.761719 323.5 L 223.640625 311.515625 L 233.957031 305.417969 L 244.398438 311.304688 Z M 244.523438 323.292969 " fill-opacity="1" fill-rule="nonzero"/><path fill="#ff56a8" d="M 218.113281 323.558594 L 207.792969 329.660156 L 197.351562 323.773438 L 197.226562 311.785156 L 207.550781 305.6875 L 217.988281 311.574219 Z M 218.113281 323.558594 " fill-opacity="1" fill-rule="nonzero"/><path fill="#01b4db" d="M 218.003906 356.398438 C 212.078125 355.722656 206.304688 354.585938 200.699219 353.027344 L 207.550781 348.976562 L 217.988281 354.863281 Z M 218.003906 356.398438 " fill-opacity="1" fill-rule="nonzero"/><g clip-path="url(#b6caeafcd6)"><path fill="#01b4db" d="M 244.859375 356.277344 C 240.292969 356.84375 235.636719 357.132812 230.914062 357.132812 C 228.628906 357.132812 226.355469 357.066406 224.097656 356.929688 L 224.078125 355.078125 L 234.402344 348.976562 L 244.84375 354.863281 Z M 244.859375 356.277344 " fill-opacity="1" fill-rule="nonzero"/></g><path fill="#01b4db" d="M 266.085938 351.523438 C 261.273438 353.109375 256.324219 354.375 251.25 355.300781 L 251.25 355.078125 L 261.570312 348.976562 Z M 266.085938 351.523438 " fill-opacity="1" fill-rule="nonzero"/><path fill="#01b4db" d="M 271.222656 323.292969 L 260.90625 329.394531 L 250.464844 323.5 L 250.339844 311.515625 L 260.664062 305.417969 L 271.101562 311.304688 Z M 271.222656 323.292969 " fill-opacity="1" fill-rule="nonzero"/><path fill="#01b4db" d="M 294.917969 321.421875 L 285.867188 326.769531 L 276.710938 321.609375 L 276.605469 311.097656 L 285.652344 305.75 L 294.808594 310.910156 Z M 294.917969 321.421875 " fill-opacity="1" fill-rule="nonzero"/><path fill="#01b4db" d="M 306.988281 300.742188 L 297.941406 306.09375 L 288.785156 300.929688 L 288.679688 290.421875 L 297.726562 285.070312 L 306.882812 290.238281 Z M 306.988281 300.742188 " fill-opacity="1" fill-rule="nonzero"/><path fill="#01b4db" d="M 271.128906 347.417969 L 264.039062 343.421875 L 263.921875 331.847656 L 273.886719 325.957031 L 283.96875 331.644531 L 284.074219 342.035156 Z M 271.128906 347.417969 " fill-opacity="1" fill-rule="nonzero"/><path fill="#01b4db" d="M 305.351562 328.46875 C 299.65625 333.070312 293.492188 337.132812 286.929688 340.582031 L 286.816406 329.527344 L 296.78125 323.636719 Z M 305.351562 328.46875 " fill-opacity="1" fill-rule="nonzero"/><path fill="#01b4db" d="M 231.4375 344.882812 L 221.476562 350.773438 L 211.390625 345.089844 L 211.269531 333.515625 L 221.238281 327.621094 L 231.320312 333.308594 Z M 231.4375 344.882812 " fill-opacity="1" fill-rule="nonzero"/><path fill="#01b4db" d="M 204.164062 344.765625 L 194.402344 349.378906 L 184.105469 343.941406 L 183.996094 333.394531 L 193.964844 327.503906 L 204.046875 333.191406 Z M 204.164062 344.765625 " fill-opacity="1" fill-rule="nonzero"/><path fill="#01b4db" d="M 254.554688 299.03125 L 247.492188 303.203125 L 240.351562 299.179688 L 240.265625 290.976562 L 247.328125 286.804688 L 254.46875 290.832031 Z M 254.554688 299.03125 " fill-opacity="1" fill-rule="nonzero"/><path fill="#ff56a8" d="M 301.898438 276.421875 L 290.789062 282.988281 L 279.546875 276.648438 L 279.417969 263.742188 L 290.527344 257.175781 L 301.765625 263.515625 Z M 301.898438 276.421875 " fill-opacity="1" fill-rule="nonzero"/><path fill="#01b4db" d="M 297.796875 274.109375 L 290.742188 278.28125 L 283.597656 274.253906 L 283.515625 266.054688 L 290.574219 261.882812 L 297.71875 265.910156 Z M 297.796875 274.109375 " fill-opacity="1" fill-rule="nonzero"/><path fill="#ff56a8" d="M 272.023438 278.027344 L 260.917969 284.589844 L 249.675781 278.253906 L 249.542969 265.351562 L 260.652344 258.78125 L 271.890625 265.125 Z M 272.023438 278.027344 " fill-opacity="1" fill-rule="nonzero"/><path fill="#01b4db" d="M 267.925781 275.71875 L 260.867188 279.886719 L 253.722656 275.863281 L 253.640625 267.660156 L 260.699219 263.488281 L 267.84375 267.515625 Z M 267.925781 275.71875 " fill-opacity="1" fill-rule="nonzero"/><path fill="#ff56a8" d="M 259.027344 253.617188 L 247.921875 260.183594 L 236.679688 253.84375 L 236.546875 240.941406 L 247.660156 234.375 L 258.898438 240.714844 Z M 259.027344 253.617188 " fill-opacity="1" fill-rule="nonzero"/><path fill="#01b4db" d="M 254.929688 251.308594 L 247.871094 255.480469 L 240.726562 251.453125 L 240.644531 243.25 L 247.703125 239.082031 L 254.847656 243.105469 Z M 254.929688 251.308594 " fill-opacity="1" fill-rule="nonzero"/><path fill="#ff56a8" d="M 284.042969 253.617188 L 272.929688 260.183594 L 261.691406 253.84375 L 261.5625 240.941406 L 272.667969 234.375 L 283.910156 240.714844 Z M 284.042969 253.617188 " fill-opacity="1" fill-rule="nonzero"/><path fill="#01b4db" d="M 279.941406 251.308594 L 272.886719 255.480469 L 265.742188 251.453125 L 265.660156 243.25 L 272.71875 239.082031 L 279.863281 243.105469 Z M 279.941406 251.308594 " fill-opacity="1" fill-rule="nonzero"/><path fill="#ff56a8" d="M 299.238281 207.078125 L 289.660156 212.738281 L 279.96875 207.273438 L 279.855469 196.148438 L 289.433594 190.488281 L 299.125 195.953125 Z M 299.238281 207.078125 " fill-opacity="1" fill-rule="nonzero"/><path fill="#01b4db" d="M 295.703125 205.085938 L 289.617188 208.683594 L 283.460938 205.210938 L 283.386719 198.140625 L 289.476562 194.546875 L 295.628906 198.019531 Z M 295.703125 205.085938 " fill-opacity="1" fill-rule="nonzero"/><path fill="#ff56a8" d="M 340.476562 299.167969 L 335.480469 302.125 L 330.421875 299.273438 L 330.363281 293.464844 L 335.363281 290.507812 L 340.417969 293.363281 Z M 340.476562 299.167969 " fill-opacity="1" fill-rule="nonzero"/><path fill="#01b4db" d="M 338.632812 298.128906 L 335.457031 300.007812 L 332.242188 298.191406 L 332.207031 294.503906 L 335.382812 292.628906 L 338.597656 294.441406 Z M 338.632812 298.128906 " fill-opacity="1" fill-rule="nonzero"/><path fill="#ff56a8" d="M 187.34375 148.304688 L 179.210938 153.109375 L 174.675781 150.554688 C 175.664062 149.964844 176.667969 149.390625 177.683594 148.832031 L 177.6875 148.832031 C 179.859375 147.625 182.074219 146.488281 184.328125 145.425781 C 185.308594 144.964844 186.300781 144.519531 187.296875 144.082031 Z M 187.34375 148.304688 " fill-opacity="1" fill-rule="nonzero"/><path fill="#01b4db" d="M 184.34375 146.617188 L 179.179688 149.671875 L 177.6875 148.832031 C 179.859375 147.625 182.074219 146.488281 184.328125 145.425781 Z M 184.34375 146.617188 " fill-opacity="1" fill-rule="nonzero"/><path fill="#ff56a8" d="M 312.835938 229.03125 L 303.257812 234.691406 L 293.570312 229.226562 L 293.457031 218.101562 L 303.03125 212.441406 L 312.722656 217.90625 Z M 312.835938 229.03125 " fill-opacity="1" fill-rule="nonzero"/><path fill="#01b4db" d="M 309.300781 227.039062 L 303.21875 230.632812 L 297.058594 227.160156 L 296.988281 220.09375 L 303.074219 216.5 L 309.226562 219.972656 Z M 309.300781 227.039062 " fill-opacity="1" fill-rule="nonzero"/><path fill="#01b4db" d="M 174.78125 207.5625 L 163.613281 214.164062 L 152.316406 207.792969 L 152.179688 194.824219 L 163.347656 188.222656 L 174.644531 194.59375 Z M 174.78125 207.5625 " fill-opacity="1" fill-rule="nonzero"/><path fill="#ff56a8" d="M 170.660156 205.242188 L 163.5625 209.433594 L 156.382812 205.390625 L 156.300781 197.144531 L 163.394531 192.953125 L 170.578125 197 Z M 170.660156 205.242188 " fill-opacity="1" fill-rule="nonzero"/><path fill="#01b4db" d="M 174.835938 166.558594 L 164.722656 172.53125 L 154.492188 166.765625 L 154.480469 165.863281 C 155.679688 164.722656 156.90625 163.605469 158.152344 162.515625 C 161.175781 159.878906 164.347656 157.394531 167.652344 155.089844 C 168.785156 154.296875 169.933594 153.523438 171.097656 152.769531 L 174.714844 154.8125 Z M 174.835938 166.558594 " fill-opacity="1" fill-rule="nonzero"/><path fill="#ff56a8" d="M 171.101562 164.453125 L 164.675781 168.253906 L 158.175781 164.585938 L 158.152344 162.515625 C 161.175781 159.878906 164.347656 157.394531 167.652344 155.089844 L 171.027344 156.992188 Z M 171.101562 164.453125 " fill-opacity="1" fill-rule="nonzero"/><path fill="#01b4db" d="M 273.929688 205.730469 L 263.597656 211.832031 L 253.140625 205.9375 L 253.019531 193.9375 L 263.355469 187.832031 L 273.808594 193.730469 Z M 273.929688 205.730469 " fill-opacity="1" fill-rule="nonzero"/><path fill="#ff56a8" d="M 270.117188 203.578125 L 263.554688 207.457031 L 256.910156 203.714844 L 256.832031 196.089844 L 263.398438 192.207031 L 270.039062 195.953125 Z M 270.117188 203.578125 " fill-opacity="1" fill-rule="nonzero"/><path fill="#01b4db" d="M 356.265625 180.882812 L 352.675781 183.007812 L 349.046875 180.960938 L 349.003906 176.789062 L 352.589844 174.671875 L 356.222656 176.71875 Z M 356.265625 180.882812 " fill-opacity="1" fill-rule="nonzero"/><path fill="#01b4db" d="M 347.808594 163.96875 L 342.425781 167.148438 L 336.972656 164.078125 L 336.910156 157.824219 L 342.296875 154.636719 L 347.742188 157.707031 Z M 347.808594 163.96875 " fill-opacity="1" fill-rule="nonzero"/><path fill="#01b4db" d="M 319.429688 259.945312 L 314.042969 263.125 L 308.59375 260.054688 L 308.527344 253.800781 L 313.914062 250.617188 L 319.363281 253.691406 Z M 319.429688 259.945312 " fill-opacity="1" fill-rule="nonzero"/><path fill="#01b4db" d="M 247.714844 204.269531 L 242.332031 207.449219 L 236.878906 204.375 L 236.816406 198.121094 L 242.203125 194.9375 L 247.648438 198.007812 Z M 247.714844 204.269531 " fill-opacity="1" fill-rule="nonzero"/><path fill="#01b4db" d="M 305.71875 163.96875 L 300.332031 167.148438 L 294.878906 164.078125 L 294.816406 157.824219 L 300.203125 154.636719 L 305.65625 157.707031 Z M 305.71875 163.96875 " fill-opacity="1" fill-rule="nonzero"/><path fill="#01b4db" d="M 359.667969 206.78125 L 354.28125 209.96875 L 348.832031 206.894531 L 348.769531 200.636719 L 354.152344 197.453125 L 359.601562 200.527344 Z M 359.667969 206.78125 " fill-opacity="1" fill-rule="nonzero"/><path fill="#01b4db" d="M 328.710938 311.300781 L 324.761719 313.632812 L 320.761719 311.378906 L 320.714844 306.789062 L 324.667969 304.453125 L 328.667969 306.707031 Z M 328.710938 311.300781 " fill-opacity="1" fill-rule="nonzero"/><path fill="#01b4db" d="M 319.09375 274.878906 L 315.144531 277.214844 L 311.148438 274.960938 L 311.097656 270.371094 L 315.050781 268.03125 L 319.050781 270.289062 Z M 319.09375 274.878906 " fill-opacity="1" fill-rule="nonzero"/><path fill="#01b4db" d="M 303.625 250.078125 L 297.84375 253.496094 L 291.992188 250.195312 L 291.925781 243.484375 L 297.707031 240.066406 L 303.558594 243.363281 Z M 303.625 250.078125 " fill-opacity="1" fill-rule="nonzero"/><path fill="#01b4db" d="M 282.933594 149.808594 L 278.976562 152.148438 L 274.972656 149.886719 L 274.921875 145.289062 L 278.882812 142.953125 L 282.890625 145.210938 Z M 282.933594 149.808594 " fill-opacity="1" fill-rule="nonzero"/><path fill="#01b4db" d="M 325.0625 217.292969 L 321.105469 219.632812 L 317.101562 217.375 L 317.058594 212.777344 L 321.015625 210.4375 L 325.019531 212.695312 Z M 325.0625 217.292969 " fill-opacity="1" fill-rule="nonzero"/><path fill="#01b4db" d="M 363.4375 266.667969 L 359.480469 269.003906 L 355.476562 266.75 L 355.433594 262.152344 L 359.390625 259.808594 L 363.394531 262.070312 Z M 363.4375 266.667969 " fill-opacity="1" fill-rule="nonzero"/><path fill="#01b4db" d="M 340.382812 229.007812 L 335.480469 231.90625 L 330.519531 229.109375 L 330.460938 223.414062 L 335.363281 220.515625 L 340.324219 223.3125 Z M 340.382812 229.007812 " fill-opacity="1" fill-rule="nonzero"/><path fill="#01b4db" d="M 356.992188 231.023438 L 352.6875 233.570312 L 348.328125 231.113281 L 348.277344 226.113281 L 352.585938 223.566406 L 356.9375 226.023438 Z M 356.992188 231.023438 " fill-opacity="1" fill-rule="nonzero"/><path fill="#01b4db" d="M 293.15625 237.414062 L 288.851562 239.960938 L 284.496094 237.5 L 284.445312 232.503906 L 288.75 229.957031 L 293.105469 232.414062 Z M 293.15625 237.414062 " fill-opacity="1" fill-rule="nonzero"/><path fill="#01b4db" d="M 263.476562 233.667969 L 259.171875 236.210938 L 254.816406 233.757812 L 254.761719 228.753906 L 259.070312 226.210938 L 263.425781 228.667969 Z M 263.476562 233.667969 " fill-opacity="1" fill-rule="nonzero"/><path fill="#01b4db" d="M 230.914062 180.851562 L 226.613281 183.398438 L 222.253906 180.9375 L 222.207031 175.9375 L 226.507812 173.394531 L 230.867188 175.851562 Z M 230.914062 180.851562 " fill-opacity="1" fill-rule="nonzero"/><path fill="#01b4db" d="M 316.472656 177.394531 L 312.167969 179.941406 L 307.8125 177.484375 L 307.757812 172.484375 L 312.0625 169.9375 L 316.421875 172.390625 Z M 316.472656 177.394531 " fill-opacity="1" fill-rule="nonzero"/><path fill="#01b4db" d="M 321.605469 203.652344 L 317.300781 206.195312 L 312.945312 203.742188 L 312.894531 198.738281 L 317.199219 196.191406 L 321.554688 198.648438 Z M 321.605469 203.652344 " fill-opacity="1" fill-rule="nonzero"/><path fill="#01b4db" d="M 344.824219 243.476562 L 341.167969 245.636719 L 337.46875 243.550781 L 337.425781 239.300781 L 341.082031 237.140625 L 344.785156 239.230469 Z M 344.824219 243.476562 " fill-opacity="1" fill-rule="nonzero"/><path fill="#ff56a8" d="M 327.664062 292.808594 L 321.617188 296.382812 L 315.503906 292.933594 L 315.433594 285.914062 L 321.476562 282.34375 L 327.589844 285.792969 Z M 327.664062 292.808594 " fill-opacity="1" fill-rule="nonzero"/><path fill="#ff56a8" d="M 260.785156 220.472656 L 256.277344 223.136719 L 251.714844 220.5625 L 251.660156 215.328125 L 256.167969 212.664062 L 260.730469 215.238281 Z M 260.785156 220.472656 " fill-opacity="1" fill-rule="nonzero"/><path fill="#ff56a8" d="M 329.648438 191.203125 L 326.710938 192.9375 L 323.742188 191.265625 L 323.707031 187.855469 L 326.644531 186.121094 L 329.609375 187.796875 Z M 329.648438 191.203125 " fill-opacity="1" fill-rule="nonzero"/><path fill="#ff56a8" d="M 333.289062 258.546875 L 330.351562 260.28125 L 327.382812 258.605469 L 327.347656 255.199219 L 330.28125 253.464844 L 333.25 255.136719 Z M 333.289062 258.546875 " fill-opacity="1" fill-rule="nonzero"/><g clip-path="url(#c3ecb32964)"><path fill="#ff56a8" d="M 365.039062 246.804688 L 362.105469 248.539062 L 359.136719 246.867188 L 359.097656 243.457031 L 362.035156 241.722656 L 365.003906 243.398438 Z M 365.039062 246.804688 " fill-opacity="1" fill-rule="nonzero"/></g><path fill="#01b4db" d="M 309.03125 205.382812 L 306.101562 207.121094 L 303.128906 205.449219 L 303.09375 202.035156 L 306.027344 200.300781 L 309 201.976562 Z M 309.03125 205.382812 " fill-opacity="1" fill-rule="nonzero"/><path fill="#ff56a8" d="M 318.144531 154.140625 L 313.640625 156.804688 L 309.078125 154.238281 L 309.027344 149 L 313.53125 146.339844 L 318.089844 148.90625 Z M 318.144531 154.140625 " fill-opacity="1" fill-rule="nonzero"/><path fill="#ff56a8" d="M 296.183594 147.628906 L 292.46875 149.824219 L 288.707031 147.707031 L 288.667969 143.390625 L 292.378906 141.191406 L 296.136719 143.3125 Z M 296.183594 147.628906 " fill-opacity="1" fill-rule="nonzero"/><path fill="#01b4db" d="M 339.910156 265.324219 C 339.910156 265.652344 339.847656 265.96875 339.722656 266.273438 C 339.59375 266.574219 339.417969 266.84375 339.183594 267.074219 C 338.953125 267.308594 338.683594 267.488281 338.378906 267.613281 C 338.074219 267.738281 337.761719 267.800781 337.429688 267.800781 C 337.101562 267.800781 336.785156 267.738281 336.484375 267.613281 C 336.179688 267.488281 335.910156 267.308594 335.679688 267.074219 C 335.445312 266.84375 335.269531 266.574219 335.140625 266.273438 C 335.015625 265.96875 334.953125 265.652344 334.953125 265.324219 C 334.953125 264.996094 335.015625 264.679688 335.140625 264.375 C 335.269531 264.070312 335.445312 263.804688 335.679688 263.570312 C 335.910156 263.339844 336.179688 263.160156 336.484375 263.035156 C 336.785156 262.90625 337.101562 262.84375 337.429688 262.84375 C 337.761719 262.84375 338.074219 262.90625 338.378906 263.035156 C 338.683594 263.160156 338.953125 263.339844 339.183594 263.570312 C 339.417969 263.804688 339.59375 264.070312 339.722656 264.375 C 339.847656 264.679688 339.910156 264.996094 339.910156 265.324219 Z M 339.910156 265.324219 " fill-opacity="1" fill-rule="nonzero"/><path fill="#ff56a8" d="M 344.839844 215.035156 C 344.839844 215.363281 344.777344 215.679688 344.648438 215.980469 C 344.523438 216.285156 344.34375 216.554688 344.113281 216.785156 C 343.878906 217.019531 343.613281 217.199219 343.308594 217.324219 C 343.003906 217.449219 342.6875 217.511719 342.359375 217.511719 C 342.03125 217.511719 341.714844 217.449219 341.414062 217.324219 C 341.109375 217.199219 340.839844 217.019531 340.609375 216.785156 C 340.375 216.554688 340.195312 216.285156 340.070312 215.980469 C 339.945312 215.679688 339.882812 215.363281 339.882812 215.035156 C 339.882812 214.703125 339.945312 214.390625 340.070312 214.085938 C 340.195312 213.78125 340.375 213.515625 340.609375 213.28125 C 340.839844 213.050781 341.109375 212.871094 341.414062 212.742188 C 341.714844 212.617188 342.03125 212.554688 342.359375 212.554688 C 342.6875 212.554688 343.003906 212.617188 343.308594 212.742188 C 343.613281 212.871094 343.878906 213.050781 344.113281 213.28125 C 344.34375 213.515625 344.523438 213.78125 344.648438 214.085938 C 344.777344 214.390625 344.839844 214.703125 344.839844 215.035156 Z M 344.839844 215.035156 " fill-opacity="1" fill-rule="nonzero"/><path fill="#ff56a8" d="M 340.953125 189.054688 C 340.953125 189.382812 340.890625 189.699219 340.765625 190.003906 C 340.640625 190.304688 340.460938 190.574219 340.226562 190.804688 C 339.996094 191.039062 339.726562 191.21875 339.421875 191.34375 C 339.121094 191.46875 338.804688 191.53125 338.476562 191.53125 C 338.148438 191.53125 337.832031 191.46875 337.527344 191.34375 C 337.222656 191.21875 336.957031 191.039062 336.722656 190.804688 C 336.492188 190.574219 336.3125 190.304688 336.1875 190.003906 C 336.058594 189.699219 335.996094 189.382812 335.996094 189.054688 C 335.996094 188.726562 336.058594 188.410156 336.1875 188.105469 C 336.3125 187.800781 336.492188 187.535156 336.722656 187.300781 C 336.957031 187.070312 337.222656 186.890625 337.527344 186.765625 C 337.832031 186.636719 338.148438 186.574219 338.476562 186.574219 C 338.804688 186.574219 339.121094 186.636719 339.421875 186.765625 C 339.726562 186.890625 339.996094 187.070312 340.226562 187.300781 C 340.460938 187.535156 340.640625 187.800781 340.765625 188.105469 C 340.890625 188.410156 340.953125 188.726562 340.953125 189.054688 Z M 340.953125 189.054688 " fill-opacity="1" fill-rule="nonzero"/><path fill="#01b4db" d="M 326.503906 176.777344 C 326.503906 177.105469 326.4375 177.421875 326.3125 177.726562 C 326.1875 178.027344 326.007812 178.296875 325.777344 178.527344 C 325.542969 178.761719 325.277344 178.941406 324.972656 179.066406 C 324.667969 179.191406 324.351562 179.253906 324.023438 179.253906 C 323.695312 179.253906 323.378906 179.191406 323.074219 179.066406 C 322.773438 178.941406 322.503906 178.761719 322.273438 178.527344 C 322.039062 178.296875 321.859375 178.027344 321.734375 177.726562 C 321.609375 177.421875 321.546875 177.105469 321.546875 176.777344 C 321.546875 176.449219 321.609375 176.132812 321.734375 175.828125 C 321.859375 175.523438 322.039062 175.257812 322.273438 175.023438 C 322.503906 174.792969 322.773438 174.613281 323.074219 174.488281 C 323.378906 174.359375 323.695312 174.296875 324.023438 174.296875 C 324.351562 174.296875 324.667969 174.359375 324.972656 174.488281 C 325.277344 174.613281 325.542969 174.792969 325.777344 175.023438 C 326.007812 175.257812 326.1875 175.523438 326.3125 175.828125 C 326.4375 176.132812 326.503906 176.449219 326.503906 176.777344 Z M 326.503906 176.777344 " fill-opacity="1" fill-rule="nonzero"/><path fill="#ff56a8" d="M 313.574219 163.375 C 313.574219 163.703125 313.511719 164.019531 313.386719 164.320312 C 313.261719 164.625 313.082031 164.894531 312.851562 165.125 C 312.617188 165.359375 312.347656 165.535156 312.046875 165.664062 C 311.742188 165.789062 311.425781 165.851562 311.097656 165.851562 C 310.769531 165.851562 310.453125 165.789062 310.148438 165.664062 C 309.84375 165.535156 309.578125 165.359375 309.34375 165.125 C 309.113281 164.894531 308.933594 164.625 308.808594 164.320312 C 308.683594 164.019531 308.621094 163.703125 308.621094 163.375 C 308.621094 163.042969 308.683594 162.726562 308.808594 162.425781 C 308.933594 162.121094 309.113281 161.851562 309.34375 161.621094 C 309.578125 161.386719 309.84375 161.210938 310.148438 161.082031 C 310.453125 160.957031 310.769531 160.894531 311.097656 160.894531 C 311.425781 160.894531 311.742188 160.957031 312.046875 161.082031 C 312.347656 161.210938 312.617188 161.386719 312.851562 161.621094 C 313.082031 161.851562 313.261719 162.121094 313.386719 162.425781 C 313.511719 162.726562 313.574219 163.042969 313.574219 163.375 Z M 313.574219 163.375 " fill-opacity="1" fill-rule="nonzero"/><path fill="#ff56a8" d="M 326.503906 225.613281 C 326.503906 225.941406 326.4375 226.257812 326.3125 226.5625 C 326.1875 226.867188 326.007812 227.132812 325.777344 227.367188 C 325.542969 227.597656 325.277344 227.777344 324.972656 227.902344 C 324.667969 228.027344 324.351562 228.089844 324.023438 228.089844 C 323.695312 228.089844 323.378906 228.027344 323.074219 227.902344 C 322.773438 227.777344 322.503906 227.597656 322.273438 227.367188 C 322.039062 227.132812 321.859375 226.867188 321.734375 226.5625 C 321.609375 226.257812 321.546875 225.941406 321.546875 225.613281 C 321.546875 225.285156 321.609375 224.96875 321.734375 224.664062 C 321.859375 224.363281 322.039062 224.09375 322.273438 223.859375 C 322.503906 223.628906 322.773438 223.449219 323.074219 223.324219 C 323.378906 223.199219 323.695312 223.136719 324.023438 223.136719 C 324.351562 223.136719 324.667969 223.199219 324.972656 223.324219 C 325.277344 223.449219 325.542969 223.628906 325.777344 223.859375 C 326.007812 224.09375 326.1875 224.363281 326.3125 224.664062 C 326.4375 224.96875 326.503906 225.285156 326.503906 225.613281 Z M 326.503906 225.613281 " fill-opacity="1" fill-rule="nonzero"/><path fill="#ff56a8" d="M 316.054688 300.417969 C 316.054688 300.746094 315.992188 301.0625 315.863281 301.367188 C 315.738281 301.667969 315.558594 301.9375 315.328125 302.167969 C 315.09375 302.402344 314.828125 302.582031 314.523438 302.707031 C 314.21875 302.832031 313.902344 302.894531 313.574219 302.894531 C 313.246094 302.894531 312.929688 302.832031 312.628906 302.707031 C 312.324219 302.582031 312.054688 302.402344 311.824219 302.167969 C 311.589844 301.9375 311.410156 301.667969 311.285156 301.367188 C 311.160156 301.0625 311.097656 300.746094 311.097656 300.417969 C 311.097656 300.089844 311.160156 299.773438 311.285156 299.46875 C 311.410156 299.164062 311.589844 298.898438 311.824219 298.664062 C 312.054688 298.433594 312.324219 298.253906 312.628906 298.128906 C 312.929688 298 313.246094 297.9375 313.574219 297.9375 C 313.902344 297.9375 314.21875 298 314.523438 298.128906 C 314.828125 298.253906 315.09375 298.433594 315.328125 298.664062 C 315.558594 298.898438 315.738281 299.164062 315.863281 299.46875 C 315.992188 299.773438 316.054688 300.089844 316.054688 300.417969 Z M 316.054688 300.417969 " fill-opacity="1" fill-rule="nonzero"/><path fill="#ff56a8" d="M 313.574219 242.652344 C 313.574219 242.980469 313.511719 243.296875 313.386719 243.601562 C 313.261719 243.902344 313.082031 244.171875 312.851562 244.40625 C 312.617188 244.636719 312.347656 244.816406 312.046875 244.941406 C 311.742188 245.066406 311.425781 245.128906 311.097656 245.128906 C 310.769531 245.128906 310.453125 245.066406 310.148438 244.941406 C 309.84375 244.816406 309.578125 244.636719 309.34375 244.40625 C 309.113281 244.171875 308.933594 243.902344 308.808594 243.601562 C 308.683594 243.296875 308.621094 242.980469 308.621094 242.652344 C 308.621094 242.324219 308.683594 242.007812 308.808594 241.703125 C 308.933594 241.398438 309.113281 241.132812 309.34375 240.898438 C 309.578125 240.667969 309.84375 240.488281 310.148438 240.363281 C 310.453125 240.238281 310.769531 240.175781 311.097656 240.175781 C 311.425781 240.175781 311.742188 240.238281 312.046875 240.363281 C 312.347656 240.488281 312.617188 240.667969 312.851562 240.898438 C 313.082031 241.132812 313.261719 241.398438 313.386719 241.703125 C 313.511719 242.007812 313.574219 242.324219 313.574219 242.652344 Z M 313.574219 242.652344 " fill-opacity="1" fill-rule="nonzero"/></svg>